{"title":"Jurassic Park-3(2001) BRRip In[Hindi-Eng-Tamil]6CH-AC3 By !!!dip","uid":6769924,"size":1975907788,"categoryP":"video","categoryS":"hd___movies","magnet":"?xt=urn:btih:38e2d50711e7915afc1fde353cd3f2704e23d26b&amp;dn=Jurassic+Park-3%282001%29+BRRip+In%5BHindi-Eng-Tamil%5D6CH-AC3+By+%21%21%21dip&amp;tr=udp%3A%2F%2Ftracker.openbittorrent.com%3A80&amp;tr=udp%3A%2F%2Fopen.demonii.com%3A1337&amp;tr=udp%3A%2F%2Ftracker.coppersurfer.tk%3A6969&amp;tr=udp%3A%2F%2Fexodus.desync.com%3A6969","seeders":2,"leechers":3,"uploader":"dipty","files":-1,"time":1319542789,"description":" =!                      DK GROUP HD BLURAY RELEAESEES!=\n\n===================================================================================\n\n       Jurassic Park-3(2001)720p Bluray Rip InHindi-Eng-Tamil6CH-AC3 By !!!dip\n\n===================================================================================\n\nStoryline:\n\nDr. Alan Grant is now a happy man with the previous incidents of Jurassic Park now behind him. Grant is that happy that he announce in public, that nothing on Earth can persuade him back onto the islands. Maybe nothing, except Paul Kirby. Kirby and his wife, Amanda want a plane to fly them over Isla Sorna, with Dr. Grant as their guide. But not everything Kirby says is true. When the plane lands, Dr. Grant realizes that there is another reason why they are there, that he doesn't know of. Now, Dr. Grant is stuck on an island he has never been on before, with what was a plane journey now turned into a search party.\n\n\nCast:\n\nSam Neill...............Dr. Alan Grant\nWilliam H. Macy.........Paul Kirby\nTÃƒÂ©a Leoni...............Amanda Kirby\nAlessandro Nivola.......Billy Brennan\nTrevor Morgan...........Erik Kirby\nMichael Jeter...........Mr. Udesky\nJohn Diehl..............Cooper\nBruce A. Young..........M.B. Nash\nLaura Dern..............Dr. Ellie Sattler\nTaylor Nichols..........Mark Degler\nMark Harelik............Ben Hildebrand\nJulio Oscar Mechoso.....Enrique Cardoso\nBlake Michael Bryan.....Charlie (as Blake Bryan)\nSarah Danielle Madison..Cheryl Logan\nLinda Park..............Hannah\n\n\nDirectors :Joe Johnston\nWriters :Michael Crichton (characters), Peter Buchman\nStars: Sam Neill, William H. Macy and TÃƒÂ©a Leoni\nGenre:Action | Adventure | Sci-Fi\nLanguage: English-Hindi\nFormat : Color, Dubbed,Widescreen\nRelease Date :18 July 2001 (USA)\nRun Time : 01H:28M:33S\nEncoder: Deep Shikha\n\nBox Office\nBudget: $93,000,000 (estimated)\nOpening Weekend: $50,771,645 (USA) (22 July 2001) (3434 Screens)\nGross: $365,900,000 (Worldwide) (2001)\n\nProduction Dates\n30 August 2000 -  January 2001\n\nFilming Dates\n30 August 2000 - 20 January 2001\n\n\n\nVideo Specifications:\n\n\nVideo\nID                               : 1\nFormat                           : AVC\nFormat/Info                      : Advanced Video Codec\nFormat profile                   : &lt;a class=&quot;__cf_email__&quot; href=&quot;/cdn-cgi/l/email-protection&quot; data-cfemail=&quot;c28aaba5aa828ef6ecf3&quot;&gt;[email&amp;#160;protected]&lt;/a&gt;&lt;script cf-hash='f9e31' type=&quot;text/javascript&quot;&gt;\n/* &lt;![CDATA[ */!function(){try{var t=&quot;currentScript&quot;in document?document.currentScript:function(){for(var t=document.getElementsByTagName(&quot;script&quot;),e=t.length;e--;)if(t[e].getAttribute(&quot;cf-hash&quot;))return t[e]}();if(t&amp;&amp;t.previousSibling){var e,r,n,i,c=t.previousSibling,a=c.getAttribute(&quot;data-cfemail&quot;);if(a){for(e=&quot;&quot;,r=parseInt(a.substr(0,2),16),n=2;a.length-n;n+=2)i=parseInt(a.substr(n,2),16)^r,e+=String.fromCharCode(i);e=document.createTextNode(e),c.parentNode.replaceChild(e,c)}}}catch(u){}}();/* ]]&gt; */&lt;/script&gt;\nFormat settings, CABAC           : Yes\nFormat settings, ReFrames        : 3 frames\nMuxing mode                      : Header stripping\nCodec ID                         : V_MPEG4/ISO/AVC\nDuration                         : 1h 28mn\nNominal bit rate                 : 1 899 Kbps\nWidth                            : 1 280 pixels\nHeight                           : 688 pixels\nDisplay aspect ratio             : 1.860\nFrame rate                       : 25.000 fps\nOriginal frame rate              : 23.976 fps\nColor space                      : YUV\nChroma subsampling               : 4:2:0\nBit depth                        : 8 bits\nScan type                        : Progressive\nBits/(Pixel*Frame)               : 0.086\nTitle                            : !!!dip\nTeam                             : DK Group HD Bluray Releases\n\n\nAudio Specifications:\n\n\nAudio #1\nID                               : 2\nFormat                           : AAC\nFormat/Info                      : Advanced Audio Codec\nFormat profile                   : LC\nCodec ID                         : A_AAC\nDuration                         : 1h 28mn\nChannel(s)                       : 6 channels\nChannel positions                : Front: L C R, Side: L R, LFE\nSampling rate                    : 48.0 KHz\nCompression mode                 : Lossy\nTitle                            : !!!dip\nLanguage                         : English\n\nAudio #2\nID                               : 3\nFormat                           : AC-3\nFormat/Info                      : Audio Coding 3\nMode extension                   : CM (complete main)\nMuxing mode                      : Header stripping\nCodec ID                         : A_AC3\nDuration                         : 1h 28mn\nBit rate mode                    : Constant\nBit rate                         : 448 Kbps\nChannel(s)                       : 6 channels\nChannel positions                : Front: L C R, Side: L R, LFE\nSampling rate                    : 48.0 KHz\nBit depth                        : 16 bits\nCompression mode                 : Lossy\nDelay relative to video          : 1s 0ms\nStream size                      : 284 MiB (15%)\nTitle                            : !!!dip\nLanguage                         : Hindi\n\nAudio #3\nID                               : 4\nFormat                           : AC-3\nFormat/Info                      : Audio Coding 3\nMode extension                   : CM (complete main)\nMuxing mode                      : Header stripping\nCodec ID                         : A_AC3\nDuration                         : 1h 28mn\nBit rate mode                    : Constant\nBit rate                         : 192 Kbps\nChannel(s)                       : 2 channels\nChannel positions                : Front: L R\nSampling rate                    : 48.0 KHz\nBit depth                        : 16 bits\nCompression mode                 : Lossy\nDelay relative to video          : 1s 111ms\nStream size                      : 122 MiB (7%)\nTitle                            : !!!dip\nLanguage                         : Tamil\n\n\nSAMPLE IMAGE:\n    &lt;a href=&quot;\nhttp://www.pix2links.com/image/1gOs.jpg&quot; rel=&quot;nofollow&quot; target=&quot;_NEW&quot;&gt;\nhttp://www.pix2links.com/image/1gOs.jpg&lt;/a&gt; &lt;a href=&quot;\nhttp://www.pix2links.com/image/4H8Nb.jpg&quot; rel=&quot;nofollow&quot; target=&quot;_NEW&quot;&gt;\nhttp://www.pix2links.com/image/4H8Nb.jpg&lt;/a&gt; &lt;a href=&quot;\nhttp://www.pix2links.com/image/9T3Cn.jpg&quot; rel=&quot;nofollow&quot; target=&quot;_NEW&quot;&gt;\nhttp://www.pix2links.com/image/9T3Cn.jpg&lt;/a&gt; &lt;a href=&quot;\nhttp://www.pix2links.com/image/cWO9.jpg&quot; rel=&quot;nofollow&quot; target=&quot;_NEW&quot;&gt;\nhttp://www.pix2links.com/image/cWO9.jpg&lt;/a&gt; &lt;a href=&quot;\nhttp://www.pix2links.com/image/9kXVa.jpg&quot; rel=&quot;nofollow&quot; target=&quot;_NEW&quot;&gt;\nhttp://www.pix2links.com/image/9kXVa.jpg&lt;/a&gt; &lt;a href=&quot;\nhttp://www.pix2links.com/image/m9Osc.jpg&quot; rel=&quot;nofollow&quot; target=&quot;_NEW&quot;&gt;\nhttp://www.pix2links.com/image/m9Osc.jpg&lt;/a&gt;\n\n\nSAMPLE VIDEO INCLUDED:\t\t","torrent":{"xt":"urn:btih:38e2d50711e7915afc1fde353cd3f2704e23d26b","amp;dn":"Jurassic+Park-3%282001%29+BRRip+In%5BHindi-Eng-Tamil%5D6CH-AC3+By+%21%21%21dip","amp;tr":["udp%3A%2F%2Ftracker.openbittorrent.com%3A80","udp%3A%2F%2Fopen.demonii.com%3A1337","udp%3A%2F%2Ftracker.coppersurfer.tk%3A6969","udp%3A%2F%2Fexodus.desync.com%3A6969"],"infoHash":"38e2d50711e7915afc1fde353cd3f2704e23d26b","infoHashBuffer":{"type":"Buffer","data":[56,226,213,7,17,231,145,90,252,31,222,53,60,211,242,112,78,35,210,107]},"announce":[],"urlList":[]}}